<svg xmlns="http://www.w3.org/2000/svg" viewBox="0 0 80 80"><polygon points="27.5 25.5 27.5 12.5 25.5 12.5 25.5 9.84 39.67 0.48 54.5 9.84 54.5 12.5 52.5 12.5 52.5 25.5 27.5 25.5" fill="#fff"/><path d="M39.68,1.08l14.32,9V12H52V25H28V12H26V10.11l13.68-9m0-1.19L25,9.57V13h2V26H53V13h2V9.57L39.67-.11Z" fill="#274247"/><polygon points="52.5 42.5 52.5 29.5 50.5 29.5 50.5 26.84 64.67 17.48 79.5 26.84 79.5 29.5 77.5 29.5 77.5 42.5 52.5 42.5" fill="#fff"/><path d="M64.68,18.08l14.32,9V29H77V42H53V29H51V27.11l13.68-9m0-1.19L50,26.57V30h2V43H78V30h2V26.57L64.67,16.89Z" fill="#274247"/><polygon points="2.5 42.5 2.5 29.5 0.5 29.5 0.5 26.85 15.66 17.48 29.5 26.83 29.5 29.5 27.5 29.5 27.5 42.5 2.5 42.5" fill="#fff"/><path d="M15.64,18.08,29,27.1V29H27V42H3V29H1V27.13l14.64-9m0-1.19L0,26.57V30H2V43H28V30h2V26.57L15.67,16.89Z" fill="#274247"/><circle cx="40" cy="13" r="3.5" fill="#fff" stroke="#274247" stroke-miterlimit="10"/><path d="M44.36,17.6,40,22.07,35.64,17.6S32,18.44,32,21v9.67a.38.38,0,0,0,.38.38H35v3.1a3.85,3.85,0,0,0,.39,1.7l4.26,10.82a.39.39,0,0,0,.7,0L44.61,35.8A3.85,3.85,0,0,0,45,34.1V31h2.62a.38.38,0,0,0,.38-.38V21C48,18.44,44.36,17.6,44.36,17.6Z" fill="#274247"/><circle cx="15" cy="30" r="3.5" fill="#fff" stroke="#274247" stroke-miterlimit="10"/><path d="M19.36,34.6,15,39.07,10.64,34.6S7,35.44,7,38v9.67a.38.38,0,0,0,.38.38H10v3.1a3.85,3.85,0,0,0,.39,1.7l4.26,10.82a.39.39,0,0,0,.7,0L19.61,52.8A3.85,3.85,0,0,0,20,51.1V48h2.62a.38.38,0,0,0,.38-.38V38C23,35.44,19.36,34.6,19.36,34.6Z" fill="#274247"/><circle cx="65" cy="30" r="3.5" fill="#fff" stroke="#274247" stroke-miterlimit="10"/><path d="M69.36,34.6,65,39.07,60.64,34.6S57,35.44,57,38v9.67a.38.38,0,0,0,.38.38H60v3.1a3.85,3.85,0,0,0,.39,1.7l4.26,10.82a.39.39,0,0,0,.7,0L69.61,52.8A3.85,3.85,0,0,0,70,51.1V48h2.62a.38.38,0,0,0,.38-.38V38C73,35.44,69.36,34.6,69.36,34.6Z" fill="#274247"/><circle cx="31" cy="46" r="3.5" fill="#fff" stroke="#274247" stroke-miterlimit="10"/><path d="M35.36,50.6,31,55.07,26.64,50.6S23,51.44,23,54v9.67a.38.38,0,0,0,.38.38H26v3.1a3.85,3.85,0,0,0,.39,1.7l4.26,10.82a.39.39,0,0,0,.7,0L35.61,68.8A3.85,3.85,0,0,0,36,67.1V64h2.62a.38.38,0,0,0,.38-.38V54C39,51.44,35.36,50.6,35.36,50.6Z" fill="#274247"/><circle cx="49" cy="46" r="3.5" fill="#fff" stroke="#274247" stroke-miterlimit="10"/><path d="M53.36,50.6,49,55.07,44.64,50.6S41,51.44,41,54v9.67a.38.38,0,0,0,.38.38H44v3.1a3.85,3.85,0,0,0,.39,1.7l4.26,10.82a.39.39,0,0,0,.7,0L53.61,68.8A3.85,3.85,0,0,0,54,67.1V64h2.62a.38.38,0,0,0,.38-.38V54C57,51.44,53.36,50.6,53.36,50.6Z" fill="#274247"/></svg>